<svg width="84" height="6" viewBox="0 0 84 6" fill="none" xmlns="http://www.w3.org/2000/svg">
<path d="M78.3333 3C78.3333 4.47276 79.5272 5.66667 81 5.66667C82.4728 5.66667 83.6667 4.47276 83.6667 3C83.6667 1.52724 82.4728 0.333333 81 0.333333C79.5272 0.333333 78.3333 1.52724 78.3333 3ZM0 3V3.5H1.0125V3V2.5H0V3ZM3.0375 3V3.5H5.0625V3V2.5H3.0375V3ZM7.0875 3V3.5H9.1125V3V2.5H7.0875V3ZM11.1375 3V3.5H13.1625V3V2.5H11.1375V3ZM15.1875 3V3.5H17.2125V3V2.5H15.1875V3ZM19.2375 3V3.5H21.2625V3V2.5H19.2375V3ZM23.2875 3V3.5H25.3125V3V2.5H23.2875V3ZM27.3375 3V3.5H29.3625V3V2.5H27.3375V3ZM31.3875 3V3.5H33.4125V3V2.5H31.3875V3ZM35.4375 3V3.5H37.4625V3V2.5H35.4375V3ZM39.4875 3V3.5H41.5125V3V2.5H39.4875V3ZM43.5375 3V3.5H45.5625V3V2.5H43.5375V3ZM47.5875 3V3.5H49.6125V3V2.5H47.5875V3ZM51.6375 3V3.5H53.6625V3V2.5H51.6375V3ZM55.6875 3V3.5H57.7125V3V2.5H55.6875V3ZM59.7375 3V3.5H61.7625V3V2.5H59.7375V3ZM63.7875 3V3.5H65.8125V3V2.5H63.7875V3ZM67.8375 3V3.5H69.8625V3V2.5H67.8375V3ZM71.8875 3V3.5H73.9125V3V2.5H71.8875V3ZM75.9375 3V3.5H77.9625V3V2.5H75.9375V3ZM79.9875 3V3.5H81V3V2.5H79.9875V3ZM78.3333 3C78.3333 4.47276 79.5272 5.66667 81 5.66667C82.4728 5.66667 83.6667 4.47276 83.6667 3C83.6667 1.52724 82.4728 0.333333 81 0.333333C79.5272 0.333333 78.3333 1.52724 78.3333 3ZM0 3V3.5H1.0125V3V2.5H0V3ZM3.0375 3V3.5H5.0625V3V2.5H3.0375V3ZM7.0875 3V3.5H9.1125V3V2.5H7.0875V3ZM11.1375 3V3.5H13.1625V3V2.5H11.1375V3ZM15.1875 3V3.5H17.2125V3V2.5H15.1875V3ZM19.2375 3V3.5H21.2625V3V2.5H19.2375V3ZM23.2875 3V3.5H25.3125V3V2.5H23.2875V3ZM27.3375 3V3.5H29.3625V3V2.5H27.3375V3ZM31.3875 3V3.5H33.4125V3V2.5H31.3875V3ZM35.4375 3V3.5H37.4625V3V2.5H35.4375V3ZM39.4875 3V3.5H41.5125V3V2.5H39.4875V3ZM43.5375 3V3.5H45.5625V3V2.5H43.5375V3ZM47.5875 3V3.5H49.6125V3V2.5H47.5875V3ZM51.6375 3V3.5H53.6625V3V2.5H51.6375V3ZM55.6875 3V3.5H57.7125V3V2.5H55.6875V3ZM59.7375 3V3.5H61.7625V3V2.5H59.7375V3ZM63.7875 3V3.5H65.8125V3V2.5H63.7875V3ZM67.8375 3V3.5H69.8625V3V2.5H67.8375V3ZM71.8875 3V3.5H73.9125V3V2.5H71.8875V3ZM75.9375 3V3.5H77.9625V3V2.5H75.9375V3ZM79.9875 3V3.5H81V3V2.5H79.9875V3Z" fill="black"/>
</svg>
