<svg width="84" height="6" viewBox="0 0 84 6" fill="none" xmlns="http://www.w3.org/2000/svg">
<path d="M5.66666 3C5.66666 4.47276 4.47276 5.66667 3 5.66667C1.52724 5.66667 0.333336 4.47276 0.333336 3C0.333336 1.52724 1.52724 0.333333 3 0.333333C4.47276 0.333333 5.66666 1.52724 5.66666 3ZM84 3V3.5H82.9875V3V2.5H84V3ZM80.9625 3V3.5H78.9375V3V2.5H80.9625V3ZM76.9125 3V3.5H74.8875V3V2.5H76.9125V3ZM72.8625 3V3.5H70.8375V3V2.5H72.8625V3ZM68.8125 3V3.5H66.7875V3V2.5H68.8125V3ZM64.7625 3V3.5H62.7375V3V2.5H64.7625V3ZM60.7125 3V3.5H58.6875V3V2.5H60.7125V3ZM56.6625 3V3.5H54.6375V3V2.5H56.6625V3ZM52.6125 3V3.5H50.5875V3V2.5H52.6125V3ZM48.5625 3V3.5H46.5375V3V2.5H48.5625V3ZM44.5125 3V3.5H42.4875V3V2.5H44.5125V3ZM40.4625 3V3.5H38.4375V3V2.5H40.4625V3ZM36.4125 3V3.5H34.3875V3V2.5H36.4125V3ZM32.3625 3V3.5H30.3375V3V2.5H32.3625V3ZM28.3125 3V3.5H26.2875V3V2.5H28.3125V3ZM24.2625 3V3.5H22.2375V3V2.5H24.2625V3ZM20.2125 3V3.5H18.1875V3V2.5H20.2125V3ZM16.1625 3V3.5H14.1375V3V2.5H16.1625V3ZM12.1125 3V3.5H10.0875V3V2.5H12.1125V3ZM8.06247 3V3.5H6.03747V3V2.5H8.06247V3ZM4.01247 3V3.5H3V3V2.5H4.01247V3ZM5.66666 3C5.66666 4.47276 4.47276 5.66667 3 5.66667C1.52724 5.66667 0.333336 4.47276 0.333336 3C0.333336 1.52724 1.52724 0.333333 3 0.333333C4.47276 0.333333 5.66666 1.52724 5.66666 3ZM84 3V3.5H82.9875V3V2.5H84V3ZM80.9625 3V3.5H78.9375V3V2.5H80.9625V3ZM76.9125 3V3.5H74.8875V3V2.5H76.9125V3ZM72.8625 3V3.5H70.8375V3V2.5H72.8625V3ZM68.8125 3V3.5H66.7875V3V2.5H68.8125V3ZM64.7625 3V3.5H62.7375V3V2.5H64.7625V3ZM60.7125 3V3.5H58.6875V3V2.5H60.7125V3ZM56.6625 3V3.5H54.6375V3V2.5H56.6625V3ZM52.6125 3V3.5H50.5875V3V2.5H52.6125V3ZM48.5625 3V3.5H46.5375V3V2.5H48.5625V3ZM44.5125 3V3.5H42.4875V3V2.5H44.5125V3ZM40.4625 3V3.5H38.4375V3V2.5H40.4625V3ZM36.4125 3V3.5H34.3875V3V2.5H36.4125V3ZM32.3625 3V3.5H30.3375V3V2.5H32.3625V3ZM28.3125 3V3.5H26.2875V3V2.5H28.3125V3ZM24.2625 3V3.5H22.2375V3V2.5H24.2625V3ZM20.2125 3V3.5H18.1875V3V2.5H20.2125V3ZM16.1625 3V3.5H14.1375V3V2.5H16.1625V3ZM12.1125 3V3.5H10.0875V3V2.5H12.1125V3ZM8.06247 3V3.5H6.03747V3V2.5H8.06247V3ZM4.01247 3V3.5H3V3V2.5H4.01247V3Z" fill="black"/>
</svg>
