<svg width="36" height="36" viewBox="0 0 36 36" fill="none" xmlns="http://www.w3.org/2000/svg">
<path d="M7.71977 5.63563H33.8535L30.298 18.0801H9.63433M32.0757 25.1912H10.7424L7.18685 2.08008H1.85352M12.5202 32.3023C12.5202 33.2842 11.7242 34.0801 10.7424 34.0801C9.76057 34.0801 8.96463 33.2842 8.96463 32.3023C8.96463 31.3204 9.76057 30.5245 10.7424 30.5245C11.7242 30.5245 12.5202 31.3204 12.5202 32.3023ZM32.0757 32.3023C32.0757 33.2842 31.2798 34.0801 30.298 34.0801C29.3161 34.0801 28.5202 33.2842 28.5202 32.3023C28.5202 31.3204 29.3161 30.5245 30.298 30.5245C31.2798 30.5245 32.0757 31.3204 32.0757 32.3023Z" stroke="#042F0F" stroke-width="3" stroke-linecap="round" stroke-linejoin="round"/>
</svg>
