<svg width="41" height="41" viewBox="0 0 41 41" fill="none" xmlns="http://www.w3.org/2000/svg">
<rect width="40.3614" height="40.3614" rx="5" fill="#17A2B8"/>
<path d="M24.8151 12.2777C25.6191 12.2777 26.3031 12.5657 26.8671 13.1417C27.4311 13.7177 27.7131 14.3957 27.7131 15.1757V24.8237C27.7131 25.6157 27.4311 26.2937 26.8671 26.8577C26.3031 27.4217 25.6191 27.7097 24.8151 27.7217H22.9431V21.7277H24.9411L25.2291 19.4057H22.9431V17.9117C22.9431 17.5397 23.0211 17.2637 23.1771 17.0837C23.3331 16.9037 23.6391 16.8077 24.0951 16.7957L25.3191 16.7777V14.7077C24.8991 14.6477 24.2991 14.6177 23.5191 14.6177C22.6191 14.6177 21.8931 14.8817 21.3411 15.4097C20.7891 15.9377 20.5191 16.6997 20.5311 17.6957V19.4057H18.5151V21.7277H20.5311V27.7217H15.1851C14.3811 27.7217 13.6971 27.4337 13.1331 26.8577C12.5691 26.2817 12.2871 25.6037 12.2871 24.8237V15.1757C12.2871 14.3837 12.5691 13.7057 13.1331 13.1417C13.6971 12.5777 14.3811 12.2897 15.1851 12.2777H24.8151Z" fill="white"/>
</svg>
