<svg width="41" height="41" viewBox="0 0 41 41" fill="none" xmlns="http://www.w3.org/2000/svg">
<rect width="40.3614" height="40.3614" rx="5" fill="#17A2B8"/>
<path d="M22.7458 19.9997C22.7458 19.2917 22.4998 18.6857 22.0078 18.1817C21.5158 17.6777 20.9098 17.4257 20.1898 17.4257C19.4698 17.4257 18.8638 17.6777 18.3718 18.1817C17.8798 18.6857 17.6278 19.2917 17.6158 19.9997C17.6038 20.7077 17.8558 21.3137 18.3718 21.8177C18.8878 22.3217 19.4938 22.5737 20.1898 22.5737C20.8858 22.5737 21.4918 22.3217 22.0078 21.8177C22.5238 21.3137 22.7698 20.7077 22.7458 19.9997ZM24.1318 19.9997C24.1318 21.0917 23.7478 22.0277 22.9798 22.8077C22.2118 23.5877 21.2818 23.9717 20.1898 23.9597C19.0978 23.9477 18.1618 23.5637 17.3818 22.8077C16.6018 22.0517 16.2178 21.1157 16.2298 19.9997C16.2418 18.8837 16.6258 17.9477 17.3818 17.1917C18.1378 16.4357 19.0738 16.0517 20.1898 16.0397C21.3058 16.0277 22.2358 16.4117 22.9798 17.1917C23.7238 17.9717 24.1078 18.9077 24.1318 19.9997ZM25.2298 15.8777C25.2298 16.1297 25.1398 16.3457 24.9598 16.5257C24.7798 16.7057 24.5578 16.7957 24.2938 16.7957C24.0298 16.7957 23.8138 16.7057 23.6458 16.5257C23.4778 16.3457 23.3878 16.1297 23.3758 15.8777C23.3638 15.6257 23.4538 15.4097 23.6458 15.2297C23.8378 15.0497 24.0538 14.9597 24.2938 14.9597C24.5338 14.9597 24.7558 15.0497 24.9598 15.2297C25.1638 15.4097 25.2538 15.6257 25.2298 15.8777ZM20.1898 13.6637C20.1418 13.6637 19.8838 13.6637 19.4158 13.6637H18.3538C18.1138 13.6637 17.7898 13.6757 17.3818 13.6997C16.9738 13.7237 16.6318 13.7537 16.3558 13.7897C16.0798 13.8257 15.8398 13.8917 15.6358 13.9877C15.2998 14.1197 15.0058 14.3117 14.7538 14.5637C14.5018 14.8157 14.3038 15.1097 14.1598 15.4457C14.0878 15.6377 14.0278 15.8777 13.9798 16.1657C13.9318 16.4537 13.8958 16.8017 13.8718 17.2097C13.8478 17.6177 13.8418 17.9357 13.8538 18.1637C13.8658 18.3917 13.8658 18.7457 13.8538 19.2257C13.8418 19.7057 13.8418 19.9637 13.8538 19.9997C13.8658 20.0357 13.8658 20.2937 13.8538 20.7737C13.8418 21.2537 13.8418 21.6077 13.8538 21.8357C13.8658 22.0637 13.8718 22.3817 13.8718 22.7897C13.8718 23.1977 13.9078 23.5457 13.9798 23.8337L14.1598 24.5537C14.3038 24.8897 14.5018 25.1837 14.7538 25.4357C15.0058 25.6877 15.2998 25.8797 15.6358 26.0117C15.8278 26.0837 16.0678 26.1497 16.3558 26.2097C16.6438 26.2697 16.9858 26.2997 17.3818 26.2997C17.7778 26.2997 18.1018 26.3117 18.3538 26.3357C18.6058 26.3597 18.9598 26.3597 19.4158 26.3357C19.8718 26.3117 20.1298 26.3117 20.1898 26.3357C20.2498 26.3597 20.5018 26.3597 20.9458 26.3357C21.3898 26.3117 21.7438 26.3117 22.0078 26.3357C22.2718 26.3597 22.5958 26.3477 22.9798 26.2997C23.3638 26.2517 23.7118 26.2217 24.0238 26.2097C24.3358 26.1977 24.5698 26.1317 24.7258 26.0117C25.0618 25.8797 25.3618 25.6877 25.6258 25.4357C25.8898 25.1837 26.0818 24.8897 26.2018 24.5537C26.2738 24.3617 26.3338 24.1217 26.3818 23.8337C26.4298 23.5457 26.4658 23.1977 26.4898 22.7897C26.5138 22.3817 26.5198 22.0637 26.5078 21.8357C26.4958 21.6077 26.4958 21.2537 26.5078 20.7737C26.5198 20.2937 26.5198 20.0357 26.5078 19.9997C26.4958 19.9637 26.4958 19.7057 26.5078 19.2257C26.5198 18.7457 26.5198 18.3917 26.5078 18.1637C26.4958 17.9357 26.4898 17.6177 26.4898 17.2097C26.4898 16.8017 26.4538 16.4537 26.3818 16.1657L26.2018 15.4457C26.0698 15.1097 25.8778 14.8157 25.6258 14.5637C25.3738 14.3117 25.0738 14.1197 24.7258 13.9877C24.5338 13.9157 24.2998 13.8497 24.0238 13.7897C23.7478 13.7297 23.3998 13.6997 22.9798 13.6997C22.5598 13.6997 22.2358 13.6877 22.0078 13.6637C21.7798 13.6397 21.4258 13.6397 20.9458 13.6637C20.4658 13.6877 20.2138 13.6877 20.1898 13.6637ZM27.8938 19.9997C27.8938 21.5357 27.8758 22.5977 27.8398 23.1857C27.7798 24.5777 27.3658 25.6577 26.5978 26.4257C25.8298 27.1937 24.7558 27.6077 23.3758 27.6677C22.7758 27.7037 21.7138 27.7217 20.1898 27.7217C18.6658 27.7217 17.6038 27.7037 17.0038 27.6677C15.6118 27.5957 14.5318 27.1817 13.7638 26.4257C12.9958 25.6697 12.5818 24.5897 12.5218 23.1857C12.4858 22.5977 12.4678 21.5357 12.4678 19.9997C12.4678 18.4637 12.4858 17.4017 12.5218 16.8137C12.5818 15.4217 12.9958 14.3417 13.7638 13.5737C14.5318 12.8057 15.6118 12.3917 17.0038 12.3317C17.5918 12.2957 18.6538 12.2777 20.1898 12.2777C21.7258 12.2777 22.7878 12.2957 23.3758 12.3317C24.7678 12.4037 25.8418 12.8177 26.5978 13.5737C27.3538 14.3297 27.7678 15.4097 27.8398 16.8137C27.8758 17.4017 27.8938 18.4637 27.8938 19.9997Z" fill="white"/>
</svg>
