<svg width="20" height="20" viewBox="0 0 20 20" fill="none" xmlns="http://www.w3.org/2000/svg">
<path d="M10 0C5.85781 0 2.5 3.35781 2.5 7.5C2.5 9.27437 3.28187 10.8347 4.14719 12.1875L9.49 19.7362C9.60719 19.9019 9.7975 20 10 20C10.2025 20 10.3928 19.9019 10.51 19.7362L15.8528 12.1875C16.6797 11.0744 17.5 9.27437 17.5 7.5C17.5 3.35781 14.1422 0 10 0ZM10 11.875C7.58375 11.875 5.625 9.91625 5.625 7.5C5.625 5.08375 7.58375 3.125 10 3.125C12.4163 3.125 14.375 5.08375 14.375 7.5C14.375 9.91625 12.4163 11.875 10 11.875Z" fill="black"/>
<path d="M10 3.75C7.92906 3.75 6.25 5.42906 6.25 7.5C6.25 9.57094 7.92906 11.25 10 11.25C12.0709 11.25 13.75 9.57094 13.75 7.5C13.75 5.42906 12.0709 3.75 10 3.75ZM10 10.625C8.27406 10.625 6.875 9.22563 6.875 7.5C6.875 5.77437 8.27406 4.375 10 4.375C11.7259 4.375 13.125 5.77437 13.125 7.5C13.125 9.22563 11.7259 10.625 10 10.625Z" fill="black"/>
</svg>
