<svg width="33" height="20" viewBox="0 0 33 20" fill="none" xmlns="http://www.w3.org/2000/svg">
<path d="M17.4922 16.5571L17.4941 16.5591C17.6864 16.7497 17.7139 17.0618 17.5654 17.2905L17.4922 17.3813L16.3838 18.4897C16.1601 18.7133 15.7871 18.7134 15.5635 18.4897L10.8125 13.7388L12.7441 11.8062L17.4922 16.5571Z" fill="#17A2B8" stroke="#17A2B8"/>
<path d="M1.9668 2.96387C3.92189 1.01225 7.09395 1.012 9.04492 2.96289C10.7833 4.70123 10.9723 7.4056 9.61719 9.35742L9.37891 9.7002L10.8965 11.2178L10.2207 11.8936L8.99902 10.6719L8.7041 10.376L8.36035 10.6143C6.40853 11.9694 3.70414 11.7793 1.96582 10.041C0.0145575 8.08544 0.0131752 4.91412 1.9668 2.96387ZM8.66992 3.32422C6.9213 1.57142 4.08021 1.57199 2.32813 3.32324C0.575072 5.07212 0.575124 7.91399 2.32715 9.66602C4.07917 11.418 6.92105 11.4181 8.66992 9.66504L8.66895 9.66406C10.4208 7.91509 10.4206 5.07585 8.66895 3.32422H8.66992Z" fill="#17A2B8" stroke="#17A2B8"/>
<rect x="32.25" y="0.25" width="0.5" height="19.5" fill="#17A2B8" stroke="#17A2B8" stroke-width="0.5"/>
</svg>
