<svg width="33" height="33" viewBox="0 0 33 33" fill="none" xmlns="http://www.w3.org/2000/svg">
<g clip-path="url(#clip0_380_29)">
<path fill-rule="evenodd" clip-rule="evenodd" d="M23.6539 22.4801H10.0539V12.8801C10.0539 8.61448 13.4539 6.48008 16.8522 6.48008H16.8556C20.2539 6.48008 23.6539 8.61448 23.6539 12.8801V22.4801ZM18.5539 27.2801C18.5539 28.1633 17.7923 28.8801 16.8539 28.8801C15.9155 28.8801 15.1539 28.1633 15.1539 27.2801V25.6801H18.5539V27.2801ZM28.7539 22.4801C27.8155 22.4801 27.0539 21.7633 27.0539 20.8801V12.8801C27.0539 7.19528 23.0283 4.04005 18.5539 3.40645V1.68008C18.5539 0.796878 17.7923 0.0800781 16.8539 0.0800781C15.9155 0.0800781 15.1539 0.796878 15.1539 1.68008V3.40645C10.6795 4.04005 6.65391 7.19528 6.65391 12.8801V20.8801C6.65391 21.7633 5.89231 22.4801 4.95391 22.4801C4.01551 22.4801 3.25391 23.1969 3.25391 24.0801C3.25391 24.9633 4.01551 25.6801 4.95391 25.6801H11.7539V27.2801C11.7539 29.9313 14.037 32.0801 16.8539 32.0801C19.6708 32.0801 21.9539 29.9313 21.9539 27.2801V25.6801H28.7539C29.6923 25.6801 30.4539 24.9633 30.4539 24.0801C30.4539 23.1969 29.6923 22.4801 28.7539 22.4801Z" fill="#042F0F"/>
</g>
<defs>
<clipPath id="clip0_380_29">
<rect width="32" height="32" fill="white" transform="translate(0.853516 0.0800781)"/>
</clipPath>
</defs>
</svg>
