<svg width="41" height="41" viewBox="0 0 41 41" fill="none" xmlns="http://www.w3.org/2000/svg">
<rect width="40.3614" height="40.3614" rx="5" fill="#17A2B8"/>
<g clip-path="url(#clip0_677_6982)">
<path d="M13.9355 17.9937C13.9355 17.2737 14.0615 16.5957 14.3135 15.9597C14.5655 15.3237 14.9135 14.7657 15.3575 14.2857C15.8015 13.8057 16.3115 13.3917 16.8875 13.0437C17.4635 12.6957 18.0815 12.4317 18.7415 12.2517C19.4015 12.0717 20.0795 11.9877 20.7755 11.9997C21.8315 11.9997 22.8155 12.2217 23.7275 12.6657C24.6395 13.1097 25.3775 13.7577 25.9415 14.6097C26.5055 15.4617 26.7875 16.4217 26.7875 17.4897C26.7875 18.1377 26.7275 18.7677 26.6075 19.3797C26.4875 19.9917 26.2835 20.5857 25.9955 21.1617C25.7075 21.7377 25.3715 22.2357 24.9875 22.6557C24.6035 23.0757 24.1235 23.4237 23.5475 23.6997C22.9715 23.9757 22.3355 24.1017 21.6395 24.0777C21.1835 24.0777 20.7335 23.9697 20.2895 23.7537C19.8455 23.5377 19.5215 23.2437 19.3175 22.8717L19.0475 24.0057C18.9275 24.4977 18.8435 24.8157 18.7955 24.9597C18.7475 25.1037 18.6815 25.3437 18.5975 25.6797C18.5135 26.0157 18.4235 26.2497 18.3275 26.3817C18.2315 26.5137 18.1295 26.7237 18.0215 27.0117C17.9135 27.2997 17.7575 27.5637 17.5535 27.8037C17.3495 28.0437 17.1395 28.3317 16.9235 28.6677L16.7975 28.7217L16.7075 28.6137C16.5995 27.5577 16.5455 26.9277 16.5455 26.7237C16.5455 26.1117 16.6175 25.4217 16.7615 24.6537C16.9055 23.8857 17.1275 22.9197 17.4275 21.7557L17.9495 19.7217C17.7335 19.2897 17.6255 18.7257 17.6255 18.0297C17.6255 17.4657 17.7995 16.9437 18.1475 16.4637C18.4955 15.9837 18.9395 15.7377 19.4795 15.7257C19.8875 15.7257 20.2055 15.8637 20.4335 16.1397C20.6615 16.4157 20.7755 16.7577 20.7755 17.1657C20.7755 17.6097 20.6315 18.2457 20.3435 19.0737C20.0555 19.9017 19.9085 20.5287 19.9025 20.9547C19.8965 21.3807 20.0435 21.7317 20.3435 22.0077C20.6435 22.2837 21.0095 22.4217 21.4415 22.4217C21.8135 22.4217 22.1555 22.3377 22.4675 22.1697C22.7795 22.0017 23.0435 21.7737 23.2595 21.4857C23.4755 21.1977 23.6615 20.8797 23.8175 20.5317C23.9735 20.1837 24.0995 19.8177 24.1955 19.4337C24.2915 19.0497 24.3575 18.6777 24.3935 18.3177C24.4295 17.9577 24.4535 17.6217 24.4655 17.3097C24.4655 16.1577 24.0995 15.2577 23.3675 14.6097C22.6355 13.9617 21.6755 13.6377 20.4875 13.6377C19.1555 13.6377 18.0395 14.0697 17.1395 14.9337C16.2395 15.7977 15.7895 16.8957 15.7895 18.2277C15.7895 18.5277 15.8315 18.8157 15.9155 19.0917C15.9995 19.3677 16.0895 19.5837 16.1855 19.7397C16.2815 19.8957 16.3715 20.0517 16.4555 20.2077C16.5395 20.3637 16.5815 20.4657 16.5815 20.5137C16.5815 20.6937 16.5335 20.9337 16.4375 21.2337C16.3415 21.5337 16.2155 21.6837 16.0595 21.6837L15.8975 21.6657C15.5495 21.5577 15.2435 21.3717 14.9795 21.1077C14.7155 20.8437 14.5115 20.5257 14.3675 20.1537C14.2235 19.7817 14.1155 19.4217 14.0435 19.0737C13.9715 18.7257 13.9355 18.3657 13.9355 17.9937Z" fill="white"/>
</g>
<defs>
<clipPath id="clip0_677_6982">
<rect width="18" height="18" fill="white" transform="matrix(1 0 0 -1 11.3613 30)"/>
</clipPath>
</defs>
</svg>
