<svg width="21" height="21" viewBox="0 0 21 21" fill="none" xmlns="http://www.w3.org/2000/svg">
<path fill-rule="evenodd" clip-rule="evenodd" d="M10.8535 10.0801C8.64752 10.0801 6.85352 8.28608 6.85352 6.08008C6.85352 3.87408 8.64752 2.08008 10.8535 2.08008C13.0595 2.08008 14.8535 3.87408 14.8535 6.08008C14.8535 8.28608 13.0595 10.0801 10.8535 10.0801ZM14.6115 10.7531C15.9775 9.65405 16.8535 7.97008 16.8535 6.08008C16.8535 2.76608 14.1675 0.0800781 10.8535 0.0800781C7.53952 0.0800781 4.85352 2.76608 4.85352 6.08008C4.85352 7.97008 5.72952 9.65405 7.09552 10.7531C3.43652 12.1281 0.853516 15.5251 0.853516 20.0801H2.85352C2.85352 15.0801 6.44252 12.0801 10.8535 12.0801C15.2645 12.0801 18.8535 15.0801 18.8535 20.0801H20.8535C20.8535 15.5251 18.2705 12.1281 14.6115 10.7531Z" fill="black"/>
</svg>
