<svg width="17" height="20" viewBox="0 0 17 20" fill="none" xmlns="http://www.w3.org/2000/svg">
<path d="M17.0082 9.28172L16.6344 8.90789L8.14058 0.41375L0 0L0.413789 8.14094L9.2814 17.0086L17.0082 9.28172ZM1.11535 1.11566L7.6807 1.44957L15.5129 9.28168L9.2814 15.5128L1.44926 7.68067L1.11535 1.11566Z" fill="#A32C29"/>
<path d="M9.28121 18.5042L1.3052 10.5278L0.557617 11.2762L9.28121 19.9999L16.6342 12.647L15.8865 11.8993L9.28121 18.5042Z" fill="#A32C29"/>
<path d="M3.42396 3.42396C2.94201 3.90627 2.94201 4.68697 3.42396 5.16893C3.90592 5.65088 4.68697 5.65088 5.16893 5.16893C5.65088 4.68697 5.65088 3.90627 5.16893 3.42396C4.68697 2.94201 3.90588 2.94201 3.42396 3.42396Z" fill="#A32C29"/>
</svg>
