<svg width="94" height="47" viewBox="0 0 94 47" fill="none" xmlns="http://www.w3.org/2000/svg">
<g clip-path="url(#clip0_2278_22)">
<path d="M94 47C94 34.5348 89.0482 22.5802 80.234 13.766C71.4198 4.95177 59.4652 9.41095e-07 47 0C34.5348 -9.41094e-07 22.5802 4.95177 13.766 13.766C4.95177 22.5802 1.88219e-06 34.5348 0 47L47 47H94Z" fill="url(#paint0_radial_2278_22)"/>
<path d="M47.4072 35.14C46.7272 35.14 46.0739 35.06 45.4472 34.9C44.8205 34.74 44.2472 34.4867 43.7272 34.14C43.2072 33.7933 42.7739 33.3533 42.4272 32.82C42.0805 32.2733 41.8672 31.62 41.7872 30.86H44.6272C44.7205 31.2333 44.9005 31.5467 45.1672 31.8C45.4472 32.04 45.7805 32.2133 46.1672 32.32C46.5672 32.4267 46.9872 32.48 47.4272 32.48C47.7205 32.48 48.0072 32.4533 48.2872 32.4C48.5805 32.3467 48.8405 32.2533 49.0672 32.12C49.3072 31.9867 49.4939 31.8067 49.6272 31.58C49.7605 31.3533 49.8272 31.0667 49.8272 30.72C49.8272 30.4 49.7672 30.1333 49.6472 29.92C49.5272 29.7067 49.3672 29.5333 49.1672 29.4C48.9672 29.2667 48.7272 29.1733 48.4472 29.12C48.1805 29.0667 47.8939 29.04 47.5872 29.04H45.9472V26.6H47.0472C47.3939 26.6 47.7072 26.5667 47.9872 26.5C48.2672 26.42 48.5005 26.3133 48.6872 26.18C48.8872 26.0333 49.0405 25.86 49.1472 25.66C49.2539 25.4467 49.3072 25.2067 49.3072 24.94C49.3072 24.54 49.2205 24.2267 49.0472 24C48.8739 23.76 48.6339 23.5867 48.3272 23.48C48.0205 23.3733 47.6672 23.32 47.2672 23.32C46.8939 23.32 46.5405 23.38 46.2072 23.5C45.8872 23.6067 45.6205 23.7667 45.4072 23.98C45.1939 24.1933 45.0539 24.4533 44.9872 24.76H42.2072C42.2872 24.04 42.4805 23.4267 42.7872 22.92C43.0939 22.4 43.4872 21.9733 43.9672 21.64C44.4472 21.3067 44.9805 21.0667 45.5672 20.92C46.1672 20.76 46.7872 20.68 47.4272 20.68C48.0405 20.68 48.6272 20.7467 49.1872 20.88C49.7472 21.0133 50.2472 21.2333 50.6872 21.54C51.1405 21.8333 51.5005 22.2267 51.7672 22.72C52.0339 23.2133 52.1672 23.8067 52.1672 24.5C52.1672 24.9267 52.0939 25.3267 51.9472 25.7C51.8139 26.0733 51.6139 26.4067 51.3472 26.7C51.0939 26.98 50.7939 27.2133 50.4472 27.4C50.9672 27.5467 51.3939 27.7867 51.7272 28.12C52.0605 28.4533 52.3072 28.8467 52.4672 29.3C52.6405 29.7533 52.7272 30.24 52.7272 30.76C52.7272 31.6133 52.5672 32.3267 52.2472 32.9C51.9405 33.46 51.5272 33.9067 51.0072 34.24C50.4872 34.56 49.9139 34.7933 49.2872 34.94C48.6605 35.0733 48.0339 35.14 47.4072 35.14Z" fill="white"/>
</g>
<defs>
<radialGradient id="paint0_radial_2278_22" cx="0" cy="0" r="1" gradientUnits="userSpaceOnUse" gradientTransform="translate(47 47) rotate(90) scale(47)">
<stop stop-color="#9E5CA3"/>
<stop offset="1" stop-color="#D7E3ED"/>
</radialGradient>
<clipPath id="clip0_2278_22">
<rect width="94" height="47" fill="white"/>
</clipPath>
</defs>
</svg>
