<svg width="94" height="47" viewBox="0 0 94 47" fill="none" xmlns="http://www.w3.org/2000/svg">
<g clip-path="url(#clip0_2278_19)">
<path d="M94 47C94 34.5348 89.0482 22.5802 80.234 13.766C71.4198 4.95177 59.4652 9.41095e-07 47 0C34.5348 -9.41094e-07 22.5802 4.95177 13.766 13.766C4.95177 22.5802 1.88219e-06 34.5348 0 47L47 47H94Z" fill="url(#paint0_radial_2278_19)"/>
<path d="M41.8145 35V32.64L45.7345 29.38C46.0145 29.14 46.3345 28.8733 46.6945 28.58C47.0679 28.2733 47.4212 27.9467 47.7545 27.6C48.1012 27.2533 48.3812 26.8867 48.5945 26.5C48.8212 26.1133 48.9345 25.7133 48.9345 25.3C48.9345 24.7267 48.7545 24.26 48.3945 23.9C48.0479 23.54 47.5345 23.36 46.8545 23.36C46.2145 23.36 45.7079 23.5067 45.3345 23.8C44.9745 24.08 44.7479 24.44 44.6545 24.88H41.8945C41.9745 23.9333 42.2545 23.1533 42.7345 22.54C43.2279 21.9133 43.8479 21.4467 44.5945 21.14C45.3412 20.8333 46.1279 20.68 46.9545 20.68C47.8479 20.68 48.6612 20.8467 49.3945 21.18C50.1279 21.5133 50.7079 22 51.1345 22.64C51.5612 23.2667 51.7745 24.0467 51.7745 24.98C51.7745 25.78 51.6212 26.5067 51.3145 27.16C51.0212 27.8 50.6145 28.4 50.0945 28.96C49.5745 29.5067 48.9879 30.0333 48.3345 30.54L46.0945 32.36H51.7545V35H41.8145Z" fill="white"/>
</g>
<defs>
<radialGradient id="paint0_radial_2278_19" cx="0" cy="0" r="1" gradientUnits="userSpaceOnUse" gradientTransform="translate(47 47) rotate(90) scale(47)">
<stop stop-color="#7B620C"/>
<stop offset="1" stop-color="#D7E3ED"/>
</radialGradient>
<clipPath id="clip0_2278_19">
<rect width="94" height="47" fill="white"/>
</clipPath>
</defs>
</svg>
