<svg width="412" height="198" viewBox="0 0 412 198" fill="none" xmlns="http://www.w3.org/2000/svg">
<rect x="-16" y="27.668" width="440" height="170.332" fill="url(#paint0_radial_3234_4162)"/>
<path d="M467.998 43.8103V33.7575L458.716 28.7315L449.872 33.5199L441.468 28.9695V19.3922L432.186 14.3657L423.343 19.1546L414.938 14.6037V5.02683L405.656 0L396.374 5.02642V14.6033L387.969 19.1542L379.126 14.3657L369.844 19.3922V28.9695L361 33.7579V43.8107L369.844 48.5992V57.7013L361 62.4902V72.5426L370.283 77.5686L379.126 72.7802L387.97 77.5686L396.813 72.7802L405.656 77.5686L414.5 72.7802L423.344 77.5686L432.187 72.7802L441.03 77.5686L449.874 72.7802L458.717 77.5686L468 72.5426V62.4902L459.156 57.7013V48.5992L467.998 43.8103ZM467.12 34.233V43.3352L458.716 47.8861L454.514 45.6108L450.312 43.3356V34.2335L458.716 29.6826L467.12 34.233ZM458.277 48.5988V57.7009L454.075 59.9766L449.873 62.2522L445.671 59.9766L441.469 57.7009V48.5988L445.671 46.3235L449.873 44.0483L454.075 46.3235L458.277 48.5988ZM432.186 62.2518L427.984 59.9762L423.782 57.7005V48.5984L427.984 46.3231L432.186 44.0479L436.388 46.3231L440.59 48.5984V57.7005L436.388 59.9762L432.186 62.2518ZM414.5 62.2518L410.297 59.9762L406.095 57.7005V48.5984L410.297 46.3231L414.5 44.0479L418.702 46.3231L422.904 48.5984V57.7005L418.702 59.9762L414.5 62.2518ZM396.813 62.2518L392.611 59.9762L388.409 57.7005V48.5984L392.611 46.3231L396.813 44.0479L401.015 46.3231L405.217 48.5984V57.7005L401.015 59.9762L396.813 62.2518ZM379.126 62.2518L374.924 59.9762L370.722 57.7005V48.5984L374.924 46.3231L379.126 44.0479L383.328 46.3231L387.53 48.5984V57.7005L383.328 59.9762L379.126 62.2518ZM423.343 29.6822L427.545 31.9574L431.747 34.2326V43.3348L427.545 45.61L423.343 47.8852L419.141 45.61L414.939 43.3348V34.2326L419.141 31.9574L423.343 29.6822ZM414.061 34.233V43.3352L409.858 45.6104L405.656 47.8857L401.454 45.6104L397.252 43.3352V34.233L401.454 31.9578L405.656 29.6826L409.858 31.9578L414.061 34.233ZM405.217 19.8673V28.969L401.015 31.2443L396.813 33.5195L392.611 31.2443L388.409 28.969V19.8673L396.813 15.3164L405.217 19.8673ZM387.969 29.6822L392.171 31.9574L396.373 34.2326V43.3348L392.171 45.61L387.969 47.8852L383.767 45.61L379.565 43.3348V34.2326L383.767 31.9574L387.969 29.6822ZM449.434 43.3352L445.231 45.6104L441.029 47.8857L436.827 45.6104L432.625 43.3352V34.233L436.827 31.9578L441.029 29.6826L449.434 34.2335V43.3352ZM440.59 19.8673V28.969L436.388 31.2443L432.186 33.5195L427.984 31.2443L423.782 28.969V19.8673L432.187 15.3164L440.59 19.8673ZM422.904 28.969L418.702 31.2443L414.5 33.5195L410.297 31.2443L406.095 28.969V19.8673L414.5 15.3164L422.905 19.8673V28.969H422.904ZM397.252 5.50156L405.656 0.950688L414.061 5.50156V14.6033L405.656 19.1542L397.456 14.7137L397.252 14.6033V5.50156ZM370.722 19.8673L379.126 15.3164L387.531 19.8673V28.969L383.329 31.2443L379.127 33.5195L374.925 31.2443L370.722 28.969V19.8673H370.722ZM361.878 34.233L370.283 29.6822L374.485 31.9574L378.687 34.2326V43.3348L374.485 45.61L370.283 47.8852L361.878 43.3344V34.233ZM361.878 72.0667V62.9645L370.283 58.4132L374.485 60.6889L378.687 62.9645V72.0667L370.282 76.6175L361.878 72.0667ZM379.565 72.0667V62.9645L383.767 60.6889L387.969 58.4132L392.171 60.6889L396.373 62.9645V72.0667L387.969 76.6175L379.565 72.0667ZM397.252 72.0667V62.9645L401.454 60.6889L405.656 58.4132L409.858 60.6889L414.06 62.9645V72.0667L405.656 76.6175L397.252 72.0667ZM414.939 72.0667V62.9645L419.141 60.6889L423.343 58.4132L427.545 60.6889L431.747 62.9645V72.0667L423.342 76.6175L414.939 72.0667ZM432.625 72.0667V62.9645L436.827 60.6889L441.029 58.4132L445.231 60.6889L449.434 62.9645V72.0667L441.029 76.6175L432.625 72.0667ZM467.12 72.0667L458.716 76.6175L450.311 72.0667V62.9645L454.513 60.6889L458.715 58.4132L467.119 62.9645V72.0667H467.12Z" fill="#F2FAF9"/>
<path d="M72.9979 146.951V134.84L61.8935 128.784L51.3143 134.553L41.2613 129.071V117.532L30.1574 111.476L19.5782 117.246L9.52411 111.763V100.224L-1.57975 94.168L-12.6836 100.224V111.762L-22.7377 117.245L-33.3164 111.476L-44.4208 117.532V129.071L-55 134.84V146.952L-44.4208 152.721V163.688L-55 169.457V181.569L-43.8956 187.624L-33.3164 181.855L-22.7372 187.624L-12.1585 181.855L-1.57923 187.624L9 181.855L19.5792 187.624L30.1585 181.855L40.7372 187.624L51.3164 181.855L61.8956 187.624L73 181.569V169.457L62.4208 163.688V152.721L72.9979 146.951ZM71.9476 135.413V146.379L61.8935 151.862L56.8667 149.121L51.84 146.38V135.413L61.894 129.93L71.9476 135.413ZM61.3689 152.721V163.687L56.3421 166.429L51.3153 169.171L46.2886 166.429L41.2618 163.687V152.721L46.2886 149.979L51.3153 147.238L56.3421 149.979L61.3689 152.721ZM30.1574 169.17L25.1306 166.428L20.1039 163.687V152.72L25.1306 149.979L30.1574 147.238L35.1842 149.979L40.211 152.72V163.687L35.1842 166.428L30.1574 169.17ZM8.99948 169.17L3.9727 166.428L-1.05408 163.687V152.72L3.9727 149.979L8.99948 147.238L14.0263 149.979L19.053 152.72V163.687L14.0263 166.428L8.99948 169.17ZM-12.1585 169.17L-17.1852 166.428L-22.212 163.687V152.72L-17.1852 149.979L-12.1585 147.238L-7.13168 149.979L-2.10491 152.72V163.687L-7.13168 166.428L-12.1585 169.17ZM-33.3164 169.17L-38.3432 166.428L-43.3699 163.687V152.72L-38.3432 149.979L-33.3164 147.238L-28.2896 149.979L-23.2628 152.72V163.687L-28.2896 166.428L-33.3164 169.17ZM19.5782 129.93L24.6049 132.671L29.6317 135.412V146.379L24.6049 149.12L19.5782 151.861L14.5514 149.12L9.52463 146.379V135.412L14.5514 132.671L19.5782 129.93ZM8.47432 135.413V146.379L3.44755 149.12L-1.57923 151.862L-6.606 149.12L-11.6328 146.379V135.413L-6.606 132.671L-1.57923 129.93L3.44755 132.671L8.47432 135.413ZM-2.10491 118.104V129.07L-7.13168 131.812L-12.1585 134.553L-17.1852 131.812L-22.212 129.07V118.104L-12.1585 112.621L-2.10491 118.104ZM-22.7377 129.93L-17.7109 132.671L-12.6841 135.412V146.379L-17.7109 149.12L-22.7377 151.861L-27.7645 149.12L-32.7912 146.379V135.412L-27.7645 132.671L-22.7377 129.93ZM50.7897 146.379L45.7629 149.12L40.7361 151.862L35.7093 149.12L30.6826 146.379V135.413L35.7093 132.671L40.7361 129.93L50.7897 135.413V146.379ZM40.211 118.104V129.07L35.1842 131.812L30.1574 134.553L25.1306 131.812L20.1039 129.07V118.104L30.1579 112.621L40.211 118.104ZM19.053 129.07L14.0263 131.812L8.99948 134.553L3.9727 131.812L-1.05408 129.07V118.104L9 112.621L19.0541 118.104V129.07H19.053ZM-11.6333 100.796L-1.57975 95.3134L8.47432 100.796V111.762L-1.57975 117.245L-11.3896 111.895L-11.6333 111.762V100.796ZM-43.3705 118.104L-33.3164 112.621L-23.2623 118.104V129.07L-28.2891 131.812L-33.3159 134.553L-38.3426 131.812L-43.3694 129.07V118.104H-43.3705ZM-53.9492 135.413L-43.8951 129.93L-38.8683 132.671L-33.8415 135.412V146.379L-38.8683 149.12L-43.8951 151.861L-53.9492 146.378V135.413ZM-53.9492 180.995V170.029L-43.8956 164.545L-38.8688 167.287L-33.8421 170.029V180.995L-43.8961 186.478L-53.9492 180.995ZM-32.7912 180.995V170.029L-27.7645 167.287L-22.7377 164.545L-17.7109 167.287L-12.6841 170.029V180.995L-22.7377 186.478L-32.7912 180.995ZM-11.6333 180.995V170.029L-6.60653 167.287L-1.57975 164.545L3.44703 167.287L8.4738 170.029V180.995L-1.58028 186.478L-11.6333 180.995ZM9.52463 180.995V170.029L14.5514 167.287L19.5782 164.545L24.6049 167.287L29.6317 170.029V180.995L19.5777 186.478L9.52463 180.995ZM30.6826 180.995V170.029L35.7093 167.287L40.7361 164.545L45.7629 167.287L50.7897 170.029V180.995L40.7356 186.478L30.6826 180.995ZM71.9476 180.995L61.8935 186.478L51.8394 180.995V170.029L56.8662 167.287L61.893 164.545L71.9465 170.029V180.995H71.9476Z" fill="#F2FAF9"/>
<defs>
<radialGradient id="paint0_radial_3234_4162" cx="0" cy="0" r="1" gradientUnits="userSpaceOnUse" gradientTransform="translate(204 112.834) rotate(90) scale(85.1659 220)">
<stop stop-color="#F2FAF9"/>
<stop offset="0.692317" stop-color="#F2FAF9"/>
<stop offset="1" stop-color="white"/>
</radialGradient>
</defs>
</svg>
